<svg xmlns="http://www.w3.org/2000/svg"><symbol id="icon-suitcase" viewBox="0 0 207.7 163.6"><path fill="currentColor" stroke="#24201B" stroke-width="3.571" stroke-linecap="round" stroke-linejoin="round" stroke-miterlimit="10" d="M132.7 28.4c-1.9 0-3.4-1.7-3.4-3.7v-16H78.4v16c0 2-1.5 3.7-3.4 3.7s-3.5-1.7-3.5-3.7V5.5c0-1 .3-1.8.9-2.4l.4-.4c.6-.5 1.4-.8 2.2-.8h57.5c1 0 1.8.3 2.4.9l.3.2c.7.8 1 1.6 1 2.4v19.5c0 1.8-1.6 3.5-3.5 3.5z"/><g fill="currentColor" stroke="#24201B" stroke-width="3.571" stroke-linecap="round" stroke-linejoin="round" stroke-miterlimit="10"><path d="M205.9 158.4c0 1.9-1.5 3.4-3.4 3.4H5.2c-1.9 0-3.4-1.5-3.4-3.4V21.2c0-1.9 1.5-3.4 3.4-3.4h197.3c1.8 0 3.4 1.5 3.4 3.4v137.2zM109.1 132.7c.3 5.4-8 10.3-18.4 10.8-10.4.5-19.2-3.5-19.4-8.9-.3-5.4 8-10.3 18.5-10.8 10.3-.6 19 3.4 19.3 8.9zM95.2 86.9c0 7.3-5.9 13.2-13.2 13.2-7.2 0-13.1-5.9-13.1-13.2 0-7.3 5.9-13.2 13.1-13.2 7.3.1 13.2 6 13.2 13.2z"/></g><path fill="currentColor" stroke="#24201B" stroke-width="3.571" stroke-linecap="round" stroke-linejoin="round" stroke-miterlimit="10" d="M202.5 17.8h-15.2v3.8c0 8.1 6.7 14.8 14.8 14.8h3.8V21.2c0-1.9-1.5-3.4-3.4-3.4zM5.2 17.8h15.2v3.8c0 8.1-6.7 14.8-14.8 14.8H1.8V21.2c0-1.9 1.5-3.4 3.4-3.4zM202.5 161.8h-15.2V158c0-8.1 6.7-14.8 14.8-14.8h3.8v15.2c0 1.9-1.5 3.4-3.4 3.4zM5.2 161.8h15.2V158c0-8.1-6.7-14.8-14.8-14.8H1.8v15.2c0 1.9 1.5 3.4 3.4 3.4z"/><g fill="currentColor" stroke="#24201B" stroke-width="3.571" stroke-linecap="round" stroke-linejoin="round" stroke-miterlimit="10"><path d="M175.6 17.9c0 .7-.6 1.3-1.3 1.3h-22.7c-.7 0-1.3-.6-1.3-1.3v-2.6c0-.7.6-1.1 1.3-1.4 3.4-1.5 18.8-1.6 22.7 0 .7.3 1.3.6 1.3 1.4v2.6zM57.4 17.9c0 .7-.6 1.3-1.3 1.3H33.5c-.8 0-1.4-.6-1.4-1.3v-2.6c0-.7.7-1.1 1.4-1.4 3.4-1.5 18.7-1.6 22.7 0 .7.3 1.3.6 1.3 1.4v2.6zM37.3 17.8h15v144h-15zM155.4 17.8h15v144h-15z"/></g></symbol></svg>