<svg xmlns="http://www.w3.org/2000/svg"><symbol id="ipad-outline" viewBox="0 0 473 668"><path fill="#fff" d="M464.8 8.2C459.4 2.9 452.3 0 444.6 0H27.4C20.2 0 13.3 2.9 8.1 8.2 2.9 13.5 0 20.5 0 27.9v612.2C0 655.5 13.5 668 30.1 668H443c8 0 15.5-2.9 21.1-8.1 5.8-5.4 8.9-12.9 8.9-21v-611c0-7.5-2.9-14.5-8.2-19.7zm6.1 630.7c0 15.9-12.7 27-27.9 27H30.1c-15.4 0-28-11.5-28-25.8V27.9c0-14.2 11.5-25.8 25.3-25.8h417.2c14.7 0 26.3 11.5 26.3 25.8v611zM444.6 5.3H27.4c-5.8 0-11.3 2.3-15.5 6.6-4.2 4.3-6.6 10-6.6 16v612.2c0 12.4 11.1 22.6 24.8 22.6H443c6.7 0 12.9-2.4 17.5-6.7 4.7-4.4 7.3-10.5 7.3-17.2v-611c0-6-2.4-11.7-6.7-16-4.4-4.1-10.2-6.5-16.5-6.5zm21 633.6c0 6.1-2.3 11.6-6.6 15.6-4.2 3.9-9.9 6.1-16 6.1H30.1c-12.5 0-22.6-9.2-22.6-20.5V27.9c0-5.5 2.1-10.6 6-14.5 3.8-3.8 8.8-6 14-6h417.2c5.7 0 11 2.1 15 6 3.9 3.8 6 9 6 14.4v611.1zM236.3 36.5c2.2 0 4-1.8 4-4s-1.8-4-4-4-4 1.8-4 4c.1 2.2 1.8 4 4 4zm0-6.4c1.3 0 2.4 1.1 2.4 2.4 0 1.3-1.1 2.4-2.4 2.4-1.3 0-2.4-1.1-2.4-2.4.1-1.3 1.1-2.4 2.4-2.4zM236.3 608.1c-8.8 0-15.9 7.1-15.9 15.9v.4c.2 8.6 7.2 15.5 15.9 15.5 8.8 0 15.9-7.1 15.9-15.9s-7.1-15.9-15.9-15.9zm0 29.7c-3.6 0-7.1-1.4-9.6-3.9-2.6-2.5-4.1-5.9-4.1-9.5V624.1c0-7.6 6.2-13.8 13.8-13.8 7.6 0 13.8 6.2 13.8 13.8-.1 7.5-6.3 13.7-13.9 13.7zM239.4 617.8h-6.3c-1.5 0-2.7 1.2-2.7 2.7v6.3c0 1.5 1.2 2.7 2.7 2.7h6.3c1.5 0 2.7-1.2 2.7-2.7v-6.3c0-1.5-1.2-2.7-2.7-2.7zm.6 8.9c0 .3-.3.6-.6.6h-6.3c-.3 0-.6-.3-.6-.6v-6.3c0-.3.3-.6.6-.6h6.3c.3 0 .6.3.6.6v6.3z"/></symbol></svg>