<svg xmlns="http://www.w3.org/2000/svg"><defs><filter id="multiply"><feBlend mode="multiply"/></filter></defs><symbol id="ipad-outline" viewBox="0 0 473 668"><path fill="currentColor" d="M464.8 8.2C459.4 2.9 452.3 0 444.6 0H27.4C20.2 0 13.3 2.9 8.1 8.2 2.9 13.5 0 20.5 0 27.9v612.2C0 655.5 13.5 668 30.1 668H443c8 0 15.5-2.9 21.1-8.1 5.8-5.4 8.9-12.9 8.9-21v-611c0-7.5-2.9-14.5-8.2-19.7zm6.1 630.7c0 15.9-12.7 27-27.9 27H30.1c-15.4 0-28-11.5-28-25.8V27.9c0-14.2 11.5-25.8 25.3-25.8h417.2c14.7 0 26.3 11.5 26.3 25.8v611zM444.6 5.3H27.4c-5.8 0-11.3 2.3-15.5 6.6-4.2 4.3-6.6 10-6.6 16v612.2c0 12.4 11.1 22.6 24.8 22.6H443c6.7 0 12.9-2.4 17.5-6.7 4.7-4.4 7.3-10.5 7.3-17.2v-611c0-6-2.4-11.7-6.7-16-4.4-4.1-10.2-6.5-16.5-6.5zm21 633.6c0 6.1-2.3 11.6-6.6 15.6-4.2 3.9-9.9 6.1-16 6.1H30.1c-12.5 0-22.6-9.2-22.6-20.5V27.9c0-5.5 2.1-10.6 6-14.5 3.8-3.8 8.8-6 14-6h417.2c5.7 0 11 2.1 15 6 3.9 3.8 6 9 6 14.4v611.1zM236.3 36.5c2.2 0 4-1.8 4-4s-1.8-4-4-4-4 1.8-4 4c.1 2.2 1.8 4 4 4zm0-6.4c1.3 0 2.4 1.1 2.4 2.4 0 1.3-1.1 2.4-2.4 2.4-1.3 0-2.4-1.1-2.4-2.4.1-1.3 1.1-2.4 2.4-2.4zM236.3 608.1c-8.8 0-15.9 7.1-15.9 15.9v.4c.2 8.6 7.2 15.5 15.9 15.5 8.8 0 15.9-7.1 15.9-15.9s-7.1-15.9-15.9-15.9zm0 29.7c-3.6 0-7.1-1.4-9.6-3.9-2.6-2.5-4.1-5.9-4.1-9.5V624.1c0-7.6 6.2-13.8 13.8-13.8 7.6 0 13.8 6.2 13.8 13.8-.1 7.5-6.3 13.7-13.9 13.7zM239.4 617.8h-6.3c-1.5 0-2.7 1.2-2.7 2.7v6.3c0 1.5 1.2 2.7 2.7 2.7h6.3c1.5 0 2.7-1.2 2.7-2.7v-6.3c0-1.5-1.2-2.7-2.7-2.7zm.6 8.9c0 .3-.3.6-.6.6h-6.3c-.3 0-.6-.3-.6-.6v-6.3c0-.3.3-.6.6-.6h6.3c.3 0 .6.3.6.6v6.3z"/></symbol><symbol id="s-crown" viewBox="0 0 16.4 14.12"><path fill="#a0d7e3" d="M8.2 14.1c-4.1 0-8.2-.6-8.2-1.9V.3C0 .2 0 .1.1.1h.2L4.1 4 8 .1c.1-.1.1-.1.2-.1s.1 0 .1.1l4 3.9L16.1.2l.1-.1c.2 0 .2.1.2.2v11.9c0 1.3-4.1 1.9-8.2 1.9zm0-3.3c-4.4 0-7.6.7-7.8 1.4v.2c.2.7 3.5 1.4 7.8 1.4 4.4 0 7.6-.7 7.8-1.4v-.2c-.2-.7-3.5-1.4-7.8-1.4zm0-.4c2.5 0 6 .3 7.5 1.1l.3.2v-1c-.1-.2-.4-.6-1.9-.9-.1 0-.1 0-.1-.1v-.2c0-.1.1-.2.2-.2.7.2 1.2.3 1.6.5l.2.2V.8l-3.6 3.6-.1.1s-.1 0-.1-.1L8.2.5 4.3 4.4l-.1.1c-.1 0-.2-.1-.2-.1L.4.8V10l.3-.2c.4-.2.8-.4 1.5-.5.1 0 .2.1.2.1 0 .1 0 .2-.1.2-1.5.4-1.8.7-1.8.8v1l.3-.2c1.4-.5 4.9-.8 7.4-.8zm-3.6-1c-.1 0-.2-.1-.2-.2v-.1c0-.1.1-.1.1-.1.8-.1 1.6-.2 2.5-.2.1 0 .2.1.2.2s-.1.2-.2.2c-.8 0-1.6.1-2.4.2zm7.2 0c-.8-.1-1.6-.1-2.4-.2-.2 0-.2-.1-.2-.2s0-.2.2-.2c.8 0 1.6.1 2.4.2.1 0 .2.1.2.2-.1.1-.1.2-.2.2zm-10-1.3c-.1 0-.2-.1-.2-.2V4.2c0-.1 0-.2.1-.2h.2l2.2 2.2 2.4-2.4.1-.1c.1 0 .1 0 .1.1.1.1.1.2 0 .3L4.3 6.7l-.1.1c-.1-.1-.2-.1-.2-.1l-2-2v3.2c0 .1-.1.2-.2.2z"/></symbol><symbol id="s-icons" viewBox="0 0 737.2 82.9"><g fill="currentColor"><path d="M41.7 82.9C18.8 82.9 0 64.1 0 41.4S18.8 0 41.7 0c22.7 0 41.4 18.8 41.4 41.4S64.4 82.9 41.7 82.9zm-1.4-3v-77C19.8 3.6 2.9 20.6 2.9 41.4s16.9 37.8 37.4 38.5zm2.9-77v77c20.5-.7 37.1-17.7 37.1-38.5S63.7 3.6 43.2 2.9zM172.2 0c23 0 41.7 18.8 41.7 41.4s-18.8 41.4-41.7 41.4c-22.7 0-41.4-18.8-41.4-41.4S149.6 0 172.2 0zm-6.4 79.4c-10.2-7.3-16.7-20.8-16.7-37.9 0-17.2 6.7-30.7 16.9-37.9-18.3 2.9-32.3 18.9-32.3 37.9s14 34.8 32.1 37.9zm6.7.5c21.1-.1 38.5-17.4 38.5-38.5 0-21.2-17.6-38.5-38.5-38.5C160.2 8.7 152 22.8 152 41.4s8 32.9 20.5 38.5zM303.3 82.9c-23 0-41.7-18.8-41.7-41.4S280.4 0 303.3 0c22.7 0 41.4 18.8 41.4 41.4S326 82.9 303.3 82.9zm0-3c21.2 0 38.5-17.3 38.5-38.5S324.6 2.9 303.3 2.9c-21.2 0-38.8 17.3-38.8 38.5s17.6 38.5 38.8 38.5zM434.2 82.9c-23 0-41.7-18.8-41.7-41.4S411.2 0 434.2 0c22.7 0 41.4 18.8 41.4 41.4s-18.8 41.5-41.4 41.5zm-.3-3c12.4-5.8 20.5-19.9 20.5-38.5s-8-32.9-20.5-38.5c-21.1.1-38.5 17.4-38.5 38.5-.1 21.2 17.5 38.5 38.5 38.5zm6.5-.5c18.3-2.9 32.3-18.9 32.3-37.9s-14-34.9-32.1-37.9c10.2 7.3 16.7 20.8 16.7 37.9 0 17.1-6.7 30.6-16.9 37.9zM565 82.9c-23 0-41.7-18.8-41.7-41.4S542 0 565 0c22.7 0 41.4 18.8 41.4 41.4S587.6 82.9 565 82.9zm-1.5-3v-77c-20.5.7-37.4 17.7-37.4 38.5s16.9 37.8 37.4 38.5zm2.9-77v77c20.5-.7 37.1-17.7 37.1-38.5S586.9 3.6 566.4 2.9zM695.5 0c23 0 41.7 18.8 41.7 41.4s-18.8 41.4-41.7 41.4c-22.7 0-41.4-18.8-41.4-41.4S672.8 0 695.5 0zm-6.4 79.4c-10.2-7.3-16.7-20.8-16.7-37.9 0-17.2 6.7-30.7 16.9-37.9C670.9 6.4 657 22.4 657 41.4s13.9 34.9 32.1 38zm6.7.5c21.1-.1 38.5-17.4 38.5-38.5 0-21.2-17.6-38.5-38.5-38.5-12.4 5.8-20.5 19.9-20.5 38.5s8 32.9 20.5 38.5z"/></g></symbol><symbol id="ipad-ebook" viewBox="0 0 1254 847.4"><path fill-rule="evenodd" clip-rule="evenodd" fill="currentColor" d="M62.3 399.5c-13.1 0-23.7 10.6-23.7 23.7S49.2 447 62.3 447 86 436.4 86 423.3s-10.6-23.8-23.7-23.8zM1190.1 0H64C27.5 0 0 27.5 0 64v719.4c0 36.5 27.5 64 64 64h1126.1c36.5 0 64-27.5 64-64V64c-.1-36.5-27.5-64-64-64zM62.3 454.2c-17.1 0-30.9-13.9-30.9-30.9 0-17.1 13.9-30.9 30.9-30.9 17.1 0 30.9 13.9 30.9 30.9.1 17-13.8 30.9-30.9 30.9zm1057.6 337.2H135.3V56h984.5v735.4zm64.6-359.6c-4.6 0-8.4-3.8-8.4-8.4 0-4.6 3.8-8.4 8.4-8.4 4.6 0 8.4 3.8 8.4 8.4 0 4.7-3.8 8.4-8.4 8.4zM675.6 613.7H842c20.6 0 36.4-15.6 36.4-36.3V276.3c0-20.7-16.7-36.3-37.3-36.3H673.8c-20.6 0-39.9 15.6-39.9 36.3V649.2c.1-20.7 21.1-35.5 41.7-35.5zM412 613.7h153.7c4.3-.1 8.7 0 12.8 0 20.6 0 41.6 14.8 41.6 35.5V276.3c0-20.7-18.5-36.3-39-36.3H412.9c-20.6 0-37.3 15.6-37.3 36.3v301.1c0 20.7 15.9 36.3 36.4 36.3z"/></symbol><symbol id="brand-amazonkindle" viewBox="0 0 343.6 72.2"><path fill-rule="evenodd" clip-rule="evenodd" d="M118.5 59.7c-11.1 8.2-27.2 12.5-41 12.5-19.4 0-36.9-7.2-50.1-19.1-1-.9-.1-2.2 1.1-1.5 14.3 8.3 31.9 13.3 50.2 13.3 12.3 0 25.8-2.6 38.3-7.8 1.8-.8 3.3 1.2 1.5 2.6zM123.1 54.4c-1.4-1.8-9.4-.9-13-.4-1.1.1-1.3-.8-.3-1.5 6.4-4.5 16.8-3.2 18-1.7 1.2 1.5-.3 11.9-6.3 16.9-.9.8-1.8.4-1.4-.7 1.4-3.3 4.4-10.8 3-12.6zM110.4 21v-4.3c0-.7.5-1.1 1.1-1.1h19.4c.6 0 1.1.5 1.1 1.1v3.7c0 .6-.5 1.4-1.5 2.7l-10.1 14.4c3.7-.1 7.7.5 11.1 2.4.8.4 1 1.1 1 1.7v4.6c0 .6-.7 1.4-1.4 1-6-3.1-13.9-3.5-20.5 0-.7.4-1.4-.4-1.4-1v-4.4c0-.7 0-1.9.7-3l11.7-16.7h-10.2c-.5 0-1-.5-1-1.1zM39.5 48.1h-5.9c-.6 0-1-.5-1.1-1V16.8c0-.6.5-1.1 1.1-1.1h5.5c.6 0 1 .5 1.1 1v4h.1c1.4-3.8 4.1-5.6 7.8-5.6s6 1.8 7.7 5.6c1.4-3.8 4.7-5.6 8.2-5.6 2.5 0 5.2 1 6.8 3.3 1.9 2.6 1.5 6.3 1.5 9.5V47c0 .6-.5 1.1-1.1 1.1h-5.9c-.6 0-1.1-.5-1.1-1.1V30.9c0-1.3.1-4.5-.2-5.7-.4-2-1.8-2.6-3.5-2.6-1.4 0-2.9 1-3.5 2.5-.6 1.5-.6 4.1-.6 5.8V47c0 .6-.5 1.1-1.1 1.1h-5.9c-.6 0-1.1-.5-1.1-1.1V30.9c0-3.4.6-8.4-3.6-8.4s-4.1 4.9-4.1 8.4V47c.1.6-.4 1.1-1.1 1.1zM148.8 15c8.8 0 13.5 7.5 13.5 17.1 0 9.3-5.2 16.6-13.5 16.6-8.6 0-13.3-7.5-13.3-16.9 0-9.5 4.7-16.8 13.3-16.8zm0 6.2c-4.4 0-4.6 5.9-4.6 9.6 0 3.7-.1 11.6 4.6 11.6 4.6 0 4.8-6.4 4.8-10.3 0-2.6-.1-5.6-.9-8-.7-2.1-2-2.9-3.9-2.9zM173.7 48.1h-5.9c-.6 0-1.1-.5-1.1-1.1V16.6c0-.6.5-1 1.1-1h5.5c.5 0 .9.4 1.1.8V21h.1c1.7-4.2 4-6.1 8.1-6.1 2.6 0 5.2 1 6.9 3.6C191 21 191 25.1 191 28v19.1c-.1.5-.5 1-1.1 1H184c-.5 0-1-.4-1.1-1V30.6c0-3.3.4-8.2-3.7-8.2-1.4 0-2.8 1-3.4 2.4-.8 1.9-.9 3.7-.9 5.7V47c-.1.6-.6 1.1-1.2 1.1zM94.9 33.6c0 2.3.1 4.2-1.1 6.3-.9 1.7-2.4 2.7-4.1 2.7-2.3 0-3.6-1.7-3.6-4.3 0-5 4.5-6 8.8-6v1.3zm6 14.4c-.4.4-1 .4-1.4.1-2-1.6-2.3-2.4-3.4-3.9-3.2 3.3-5.5 4.3-9.7 4.3-5 0-8.8-3.1-8.8-9.2 0-4.8 2.6-8.1 6.3-9.7 3.2-1.4 7.7-1.7 11.1-2v-.8c0-1.4.1-3.1-.7-4.3-.7-1.1-2.1-1.5-3.3-1.5-2.3 0-4.3 1.2-4.8 3.5-.1.5-.5 1.1-1 1.1l-5.8-.6c-.5-.1-1-.5-.9-1.2 1.3-7 7.6-9.1 13.2-9.1 2.9 0 6.6.8 8.9 2.9 2.9 2.7 2.6 6.3 2.6 10.2V37c0 2.8 1.2 4 2.2 5.5.4.5.5 1.2 0 1.6-1.2 1-3.3 2.8-4.5 3.9zM17.4 33.6c0 2.3.1 4.2-1.1 6.3-.9 1.7-2.4 2.7-4.1 2.7-2.3 0-3.6-1.7-3.6-4.3 0-5 4.5-6 8.8-6v1.3zm6 14.4c-.4.4-1 .4-1.4.1-2-1.6-2.3-2.4-3.4-3.9-3.2 3.3-5.5 4.3-9.7 4.3-5 0-8.8-3.1-8.8-9.2 0-4.8 2.6-8.1 6.3-9.7 3.2-1.4 7.7-1.7 11.1-2v-.8c0-1.4.1-3.1-.7-4.3-.8-1.1-2.2-1.5-3.4-1.5-2.3 0-4.3 1.2-4.8 3.5-.1.5-.5 1.1-1 1.1L1.9 25c-.5-.1-1-.5-.9-1.2 1.3-7 7.6-9.1 13.2-9.1 2.9 0 6.6.8 8.9 2.9 2.9 2.7 2.6 6.3 2.6 10.2V37c0 2.8 1.2 4 2.2 5.5.4.5.5 1.2 0 1.6-1.2 1-3.3 2.8-4.5 3.9z"/><path d="M218.4 48.1l-13.8-16.7h-.1v16.7h-5V0h5v27.3h.1L216.4 16h6.4l-14.1 13.1 15.9 19h-6.2zM230.5 9.2c-1.9 0-3.5-1.6-3.5-3.5s1.6-3.5 3.5-3.5 3.5 1.6 3.5 3.5c-.1 2-1.6 3.5-3.5 3.5zM228 48.1V16h5v32.1h-5zM260.8 48.1V28.3c0-4-.7-8.5-5.6-8.5-3.9 0-7.5 2.8-10 4.9v23.4h-5V16h4.1l.7 3.9c3.5-2.7 7-4.7 11.5-4.7 4.6 0 9.2 3.3 9.2 11.3v21.6h-4.9zM287.6 48.7c-9 0-16.5-5.2-16.5-16.3 0-10 7.2-17.3 16.6-17.3 2.3 0 3.9.2 5.2.5V0h5v46.4c-2 1.2-5.7 2.3-10.3 2.3zm5.3-28.4c-1.3-.5-2.4-.8-5-.8-6.3 0-11.8 5-11.8 12.6 0 7.3 4 12.4 12.3 12.4 1.6 0 3.4-.3 4.4-.8V20.3zM310.8 48.7c-3.9 0-5.6-2.5-5.6-5.9V0h5v40.6c0 3.1.7 3.7 2.6 3.7.3 0 .9 0 1.7-.2l.6 3.6c-1.5.7-2.7 1-4.3 1zM323.1 32.9c0 6.1 3.5 11.6 10.4 11.6 2.9 0 5.9-1.2 7.8-2.4l1.6 3.5c-2.4 1.6-6.4 3.1-10 3.1-10.2 0-15.1-8.2-15.1-17.4 0-9.3 5.3-16.2 13-16.2 8.3 0 12.8 6.6 12.8 16.6v1.2h-20.5zm7.8-13.6c-4.7 0-7.7 4.2-7.7 9.3h15.1c0-4.4-2.6-9.3-7.4-9.3z"/></symbol><symbol id="brand-ipad" viewBox="0 0 432.6 156.6"><path d="M168 51.1c-4.9 0-8.2-3.8-8.2-8.7 0-4.7 3.5-8.5 8.4-8.5 5 0 8.2 3.8 8.2 8.5 0 5.3-3.5 8.7-8.4 8.7zm6.4 97.7h-12.6V65.7h12.6v83.1zM200 34.2c6.7-1.2 15.5-2.3 26.3-2.3 37.5 0 40.5 24.1 40.5 33.2 0 27.3-21.8 37.1-42.3 37.1-4.4 0-8.4-.2-11.9-1.1v47.7H200V34.2zm12.6 56.4c3.2.9 7.3 1.2 12.2 1.2 18.3 0 29.4-9.1 29.4-25.8 0-16.6-11.9-23.9-27.7-23.9-6.4 0-11.1.6-13.9 1.2v47.3zM340.7 129c0 6.9.2 14 1.2 19.8h-11.6l-1.2-10.7h-.5c-4.3 6.6-12.8 12.5-24.5 12.5-15.8 0-24.2-11.6-24.2-23.6 0-20 17.4-30.8 48.1-30.6 0-7 0-22.9-18.9-22.9-7.2 0-14.6 2-20.2 5.9l-3-8.7c6.7-4.4 16-7 25.3-7 23.4 0 29.5 16.6 29.5 33.1V129zm-12.5-23.3c-15.7 0-35.3 2.3-35.3 19.8 0 10.7 6.7 15.4 14.3 15.4 12.3 0 21-9.5 21-19.5v-15.7zM432 128.2c0 6.7.3 14.9.6 20.6h-11.3l-.6-14.2h-.5c-4.3 8.7-13.7 16-27.1 16-19.2 0-34.1-16.6-34.1-42.2 0-28.1 16.4-44.5 35.8-44.5 12.2 0 20.4 5.9 24.2 12.8h.3V26.8H432v101.4zM419.4 99c0-16.6-11.7-24.9-22.4-24.9-15.7 0-25 14.6-25 33.7 0 17.5 8.2 32.5 24.5 32.5 13.7 0 22.8-12 22.8-25.3V99zM106.5 83.2c-.2-19.8 16.1-29.4 16.9-29.8-9.2-13.5-23.6-15.4-28.7-15.6-12.2-1.2-23.8 7.2-30 7.2-6.2 0-15.7-7-25.9-6.8-13.2.3-25.4 7.8-32.3 19.7-13.8 24-3.4 59.5 10 78.9 6.6 9.5 14.4 20.2 24.7 19.8 9.9-.4 13.7-6.4 25.6-6.4 12 0 15.4 6.4 25.9 6.2 10.7-.2 17.4-9.7 23.9-19.3 7.5-11 10.6-21.7 10.8-22.3-.1-.1-20.7-8-20.9-31.6M86.8 25C92.3 18.4 96 9.2 95 0c-7.9.3-17.4 5.2-23.1 11.9-5.1 5.9-9.5 15.2-8.3 24.2 8.8.7 17.7-4.5 23.2-11.1"/></symbol><symbol id="brand-nook" viewBox="0 0 216.9 70.2"><path d="M165.9 69.3h9.4V0h-9.4v69.3zM187.7 45.9L208 22.6h-11.4L175.3 46l23 23.3h12.5l-23.1-23.4zM134.2 21.6c-13.4 0-24.3 10.9-24.3 24.3s10.9 24.3 24.3 24.3 24.3-10.9 24.3-24.3c-.1-13.4-10.9-24.3-24.3-24.3m0 39.1c-8.2 0-14.8-6.6-14.8-14.8 0-8.2 6.6-14.8 14.8-14.8 8.2 0 14.8 6.6 14.8 14.8 0 8.2-6.7 14.8-14.8 14.8M80.4 21.6c-13.4 0-24.3 10.9-24.3 24.3S67 70.2 80.4 70.2s24.3-10.9 24.3-24.3-10.8-24.3-24.3-24.3M65.6 45.9c0-8.2 6.6-14.8 14.8-14.8 8.2 0 14.8 6.6 14.8 14.8 0 8.2-6.6 14.8-14.8 14.8-8.2 0-14.8-6.6-14.8-14.8"/><path d="M39.1 45.6c0-8.2-6.6-14.4-14.8-14.4-8 0-14.8 6.4-14.8 14.4v23.7H0V45.2c0-12.4 11.2-23.4 24.3-23.4 13.1 0 24.3 11 24.3 23.4v24.1h-9.5V45.6zM214.2 22.4c.5 0 .9.1 1.3.4.4.2.8.6 1 1 .2.4.4.9.4 1.4 0 .5-.1.9-.4 1.4-.2.4-.6.8-1 1-.4.2-.9.4-1.4.4-.5 0-.9-.1-1.4-.4-.4-.2-.8-.6-1-1-.2-.4-.4-.9-.4-1.4 0-.5.1-.9.4-1.4.2-.4.6-.8 1-1 .6-.3 1-.4 1.5-.4zm0 .5c-.4 0-.7.1-1.1.3-.3.2-.6.5-.8.8-.2.4-.3.7-.3 1.1 0 .4.1.7.3 1.1.2.3.5.6.8.8.3.2.7.3 1.1.3.4 0 .7-.1 1.1-.3.3-.2.6-.5.8-.8.2-.3.3-.7.3-1.1 0-.4-.1-.8-.3-1.1-.2-.4-.5-.6-.8-.8-.4-.2-.7-.3-1.1-.3zm-1.2 3.7v-2.9h1.5c.2 0 .3.1.5.1l.3.3c.1.1.1.3.1.4 0 .2-.1.4-.2.5-.1.1-.3.2-.6.3.1 0 .2.1.2.1.1 0 .1.1.2.2 0 0 .1.1.2.4l.3.6h-.7l-.2-.5c-.2-.3-.3-.5-.4-.6-.1-.1-.2-.1-.4-.1h-.2v1.2h-.6zm.6-1.7h.8c.1 0 .1-.1.2-.1 0-.1.1-.1.1-.2s0-.2-.1-.2c0-.1-.1-.1-.2-.1h-.8v.6z"/></symbol><symbol id="brand-bn" viewBox="0 0 165.6 25"><path fill-rule="evenodd" clip-rule="evenodd" d="M103.6 11.7c.2 3.1.2 3.9.2 6.6v5.8H100V1.3h3.7s1.8 6.7 2.2 8.1c.4 1.5.7 2.6.9 3.6-.1-2.2-.1-5-.1-7.3V1.2h3.7V24H107s-2-7-2.5-8.4c-.4-1-.6-2.2-.9-3.9zM124.1 12.8c0 9.8-1.6 11.8-5.3 11.8-3.5 0-5.3-1.5-5.3-11.8 0-10 1.5-11.8 5.3-11.8s5.3 1.8 5.3 11.8zm-4.3 0c0-3.6 0-5.8-.1-7.4-.1-1.7-.4-2-1-2-.7 0-.9.3-1.1 2-.1 1.6-.1 3.9-.1 7.4 0 4.2 0 5.8.1 7.4.1 1.8.4 1.9 1.1 1.9.6 0 .8-.2 1-1.9.1-1.7.1-3.3.1-7.4zM137.9 17.7c0 4.7-2.1 6.4-5.7 6.4h-5.1V1.3h5.1c4 0 5 2.4 5 6.3 0 2.8-1 4.3-2.8 4.4 2 0 3.5 2 3.5 5.7zm-6.8-4.3v8h1c1.2 0 1.5-.7 1.5-4.2 0-2.5-.3-3.8-1.6-3.8h-.9V4v6.6h1c1.1 0 1.3-1 1.3-2.9 0-2.7-.3-3.7-1.6-3.7h-.7v9.4zM145 20.7h4.8v3.4h-9V1.3h4.2v19.4zM156 20.7h5v3.4h-9V1.3h8.4v3.4H156v6.2h3.9v3.2H156v6.6zM10.8 17.7c0 4.7-2.1 6.4-5.7 6.4H0V1.3h5.1c3.9 0 5 2.4 5 6.3 0 2.8-1 4.3-2.8 4.4 2 0 3.5 2 3.5 5.7zm-6.9-4.3v8h1c1.2 0 1.5-.7 1.5-4.2 0-2.5-.3-3.8-1.6-3.8h-.9V4v6.6h1c1.1 0 1.3-1 1.3-2.9C6.2 5 6 4 4.7 4h-.8v9.4zM33.4 12.4c2.6.8 2.8 3.8 2.8 6.5 0 2.1.1 4 .4 5.2h-4.2c-.1-.8-.3-1.3-.3-3.4v-2.9c0-1.8-.6-3.2-1.9-3.5H30v9.8h-4.1V1.3H32c2.9 0 4.8 1.7 4.8 5.8-.1 3.6-1.6 5.2-3.4 5.3zM30 4.1v6.7h1.2c1.1 0 1.4-.7 1.4-2.8 0-3.3-.6-3.9-1.9-3.9H30zM43.7 11.7c.2 3.1.2 3.9.2 6.6v5.8h-3.8V1.3h3.7S45.6 8 46 9.4c.4 1.5.7 2.6.9 3.6-.1-2.2-.1-5-.1-7.3V1.2h3.7V24h-3.4s-2-7-2.5-8.4c-.3-1-.6-2.2-.9-3.9zM58.1 20.7H63v3.4h-8.9V1.3h8.3v3.4h-4.3v6.2h3.8v3.2h-3.8v6.6zM69 18.9c0 2.6.5 2.9 1.5 2.9.7 0 1.3-.4 1.3-2.9 0-2.3-1.5-3.9-3.2-5.9-1.5-1.9-3.3-4.4-3.3-6.6C65.2 3 66.8 1 70 1s4.8 1.8 4.8 5.1c0 .8-.1 1.4-.3 1.8h-3.4c.1-.4.1-.9.1-1.6 0-2.2-.2-2.8-1.2-2.8-.9 0-1 .9-1 2.5 0 2.1 1.6 3.7 3 5.4 1.9 2.5 3.5 4.5 3.5 6.8 0 3.7-1.6 6.4-5.1 6.4-3.1 0-5.2-1.7-5.2-5.7 0-.9 0-1.7.3-2.5h3.6c0 1-.1 1.5-.1 2.5zM12.3 24.2l3.3-23h3.9l3.9 23h-4.2l-.4-3.7h-2.6l-.4 3.7h-3.5zm4.2-6.3h2.1s-.3-2.6-.5-4.4c-.1-1-.5-4.3-.7-6.5-.1 2.3-.4 5.6-.5 6.6-.1 1.7-.4 4.3-.4 4.3zM95.2 12.2c-1.6 0-2.8 1.1-3.5 2.5-.7 1.6-1.5 3.5-2 4.5-1.8-3-3.1-5.4-3.9-7.5 1.4-.8 3.7-1.9 5.1-3.2 1.4-1.2 2-2.4 2.2-3.7.4-2.6-1-4.8-4.3-4.8-2.7 0-6 2.1-6.6 5.7-.2 1.8.2 4.1.8 6-2.4 1.7-4.6 3.5-5.1 6.4-.8 4.7 2.2 6.9 5.5 6.9 2.3 0 4-1 5.4-2.6 1.1 1.2 2.4 2.6 4 2.6 1.3 0 2.8-.9 3.9-2.3l-.4-.7c-1 1-1.8 1.4-2.4 1.4-1.1 0-2.2-.9-3.1-2.4-.1-.2-.3-.5-.4-.7.6-1.2 1.1-2.6 1.7-3.7 1-2.3 1.7-3 2.6-3 1.6 0 .3 2.6 2 2.6.8 0 1.2-.7 1.3-1.3.1-1-.6-2.7-2.8-2.7zM85 5c.3-1.6 1.7-3.4 3.8-3.4 1.7 0 2.8 1.3 2.4 3.2-.1.7-.3 1.4-1.1 2.3-.7.9-3.4 2.6-4.7 3.3-.6-1.8-.8-3.5-.4-5.4zm-.6 18.5c-3.2 0-4.3-2.6-4-4.7.4-2.5 1.6-4 3.1-5.4 1.1 2.7 2.5 5.5 4.6 8.4-1 1.1-2.1 1.7-3.7 1.7z"/><path fill="none" stroke="#fff" stroke-width=".187" stroke-miterlimit="2.613" d="M84.2 4.2s-2.2 3.3.9 10c2.5 5.5 5.4 8.6 5.4 8.6s-3-4.1-5-9c-2.5-6-1.3-9.6-1.3-9.6z"/><path fill-rule="evenodd" clip-rule="evenodd" d="M164.5 16c.6 0 1.1-.5 1.1-1.1 0-.6-.5-1.1-1.1-1.1s-1.1.5-1.1 1.1c.1.6.5 1.1 1.1 1.1z"/></symbol><symbol id="star" viewBox="0 0 38.7 36.9"><path stroke-miterlimit="10" d="M7.6 35.4l2.2-11.8L1 14.8c-.4-.4-.2-1 .4-1.1l12.2-1.5 5.5-11c.3-.6.9-.6 1.1 0l5.5 11 11.8 1.5c.6.1.8.6.4 1.1l-8.5 8.8 1.8 11.8c.1.6-.4.9-.9.7l-10.7-5.6-11 5.6c-.7.2-1.1-.2-1-.7z"/></symbol><symbol id="book_base" viewBox="0 0 495.8 658"><path opacity=".1" d="M478.2 658c2.5 0 4.2-2 4.2-4.5s3.8-3 3.8-3h6.8l2.8-4.2V22.5L477.9.8 4 635.5 27.2 658h451z"/><path fill="currentColor" d="M1.2 11.1c2.9-2.6 8.5-7.6 10.5-9.3C13.4.3 16.3 0 16.3 0H476c2.6 0 2.6 2.5 2.6 2.5v621.3s.2 4.2-2.8 4.2H469s-3.8.5-3.8 3-1.8 4.5-4.2 4.5H4s-4-.8-4-4.5V14c0-1.2.5-2.2 1.2-2.9z"/><path fill="#fff" d="M16.2 13.8s-10 .2-7-3.2C12.3 7 14 4 21 4h446.2s3.5.2 3.5 3.2v604.2s.2 4.8-2.2 4.8h-7.2s-3.5 0-3.5 2.8v11.2h-.2v-614s-.2-2.8-3.2-2.8-438.2.4-438.2.4z"/><path fill="none" stroke="#D6D3B3" stroke-linecap="round" stroke-miterlimit="10" d="M463 5.2H16.8M14 8.1h445.2M455.2 11H11"/><path opacity=".37" fill="url(#gradient)" d="M14 21.5h35v614H14z"/></symbol><symbol id="s-plate" viewBox="0 0 98 83"><path d="M30.4 39.2c-2.2-1-8.4-5.7-11-10-9.2-1-15.8-3.2-19-7.1-.4-.6-.4-1.5.3-2 4.9-3.8 21.7-9.7 30.5-10C34 7 36.9 3.6 43.4 3.3 44.5 1.3 45.9 0 49 0c3.1 0 4.5 1.3 5.7 3.2 6.5.3 9.4 3.8 12.2 6.8 8.9.3 25.6 6.3 30.5 10 .7.6.7 1.5.3 2-3.2 3.9-9.7 6-18.6 7-2.6 4.5-9 9.2-11.2 10.2-2.5 1.2-14.5 1.5-18.9 1.5-4.4 0-16.1-.3-18.6-1.5zm62.2-16.5H5.4c7.6 4.7 23.7 4.7 43.6 4.7 19.9-.1 36-.1 43.6-4.7zM7 19.8h84C84 16.5 72.5 13 66.3 13c-.3 0-.9-.1-1-.4-2.8-2.8-5.1-6.4-11.5-6.4-.4 0-1-.3-1.3-.9-.6-1.2-1.5-2.4-3.5-2.4s-2.9 1.2-3.5 2.3c-.3.6-.9.9-1.3.9-6.4 0-8.7 3.6-11.5 6.4-.1.3-.7.4-1 .4-6.3 0-17.7 3.5-24.7 6.9zm27.3 17.4c-1.3-2-2.5-4.8-2.9-7.3-2.9 0-5.8-.1-8.4-.4 2.6 3.3 7 6.3 8.6 7.1.5.3 1.5.5 2.7.6zm13.2-7c-4.7 0-9 0-13.1-.1.4 2.8 2.3 6 3.6 7.4 3.2.3 7 .3 9.4.3v-7.6zm-8.7 19.5v20.5c0 .7-.6 1.5-1.5 1.5-.7 0-1.5-.7-1.5-1.5V49.7c0-.7.7-1.5 1.5-1.5.9.1 1.5.8 1.5 1.5zm11.6 5.8v26c0 .7-.6 1.5-1.5 1.5-.7 0-1.5-.7-1.5-1.5v-26c0-.7.7-1.5 1.5-1.5 1 .1 1.5.8 1.5 1.5zm8-17.9c1.3-1.5 3.2-4.7 3.6-7.6-3.6.1-7.6.1-11.6.1v7.6c2.2.1 5.1.1 8-.1zm2.2 12.1v20.5c0 .7-.6 1.5-1.5 1.5-.7 0-1.5-.7-1.5-1.5V49.7c0-.7.7-1.5 1.5-1.5.9.1 1.5.8 1.5 1.5zm14.7-20.2c-3.2.3-6.5.4-10.3.6-.3 2.5-1.6 5.2-2.9 7.4 2.2-.3 3.8-.4 4.7-.9 1.5-.8 5.9-3.7 8.5-7.1z"/></symbol><symbol id="s-dog" viewBox="0 0 90.6 72.6"><path fill="currentColor" d="M48.7 71.5L38.7 41H17.9C2.8 41 0 30.8 0 26v-9c0-.9.6-1.5 1.5-1.5h27.2l3.2-14.4c.1-.7.8-1.1 1.4-1.1h36.3c.6 0 1.2.4 1.3 1l19.6 59.5c.3.7-.1 1.6-.9 1.9L50.4 72.5c-.7.2-1.6-.3-1.7-1zm-45.8-53v7l7-7h-7zm45.6 43.6L85 52.6 69.6 5.7 59.6 33c-.1.6-.7 1-1.3 1H50c-.9 0-1.5-.6-1.5-1.5V2.9H34.4l-3.2 14.4c-.1.7-.9 1.2-1.5 1.2H14L3.3 29.1c1.3 4.1 4.9 9 14.5 9h21.7c.6 0 1.2.4 1.3 1l7.7 23zM40.1 8.3c2.6 0 4.8 2 4.8 4.9 0 2.5-2 4.8-4.8 4.8s-4.9-2.3-4.9-4.8c0-2.9 2.3-4.9 4.9-4.9zm0 2.9c-1.2 0-2 .9-2 2 0 1 1 1.9 2 1.9s1.9-.9 1.9-1.9c0-1.1-.7-2-1.9-2zm47.4 48.5L86 55.4 49.4 65l1.5 4.4 36.6-9.7zm-36-56.8v28.2h6L67.6 2.9H51.5z"/></symbol><symbol id="s-et" viewBox="0 0 85.3 72.5"><path fill="currentColor" d="M25.1 71.1V37.9C1.7 35.5 0 27.8 0 19.3 0 9.3 2.5 0 42.7 0s42.6 9.3 42.6 19.3c0 8.4-1.6 16.3-25.3 18.6V71c0 .9-.6 1.5-1.5 1.5h-32c-.8 0-1.4-.5-1.4-1.4zM42.7 2.9c-34.2 0-39.8 7-39.8 16.4 0 9.6 5.7 16.4 39.8 16.4s39.7-6.8 39.7-16.4c0-9.4-5.5-16.4-39.7-16.4zM10.3 19c0-5.8 4.5-10.3 10.3-10.3 5.5 0 10.2 4.5 10.2 10.3 0 5.5-4.5 10.2-10.2 10.2-5.8 0-10.3-4.6-10.3-10.2zm2.9 0c0 4.1 3.3 7.3 7.4 7.3s7.3-3.3 7.3-7.3c0-4.1-3.2-7.4-7.3-7.4S13.2 15 13.2 19zm14.9 19.1v5.4h29.1v-5.2c-4.2.3-8.9.4-14.4.4-5.6 0-10.5-.2-14.7-.6zm0 8.3v5.8h29.1v-5.8H28.1zm0 8.7v5.8h29.1v-5.8H28.1zm0 8.7v5.8h29.1v-5.8H28.1zm18.4-34.1h-7.8c-.7 0-1.5-.7-1.5-1.5 0-.7.7-1.5 1.5-1.5h7.8c.7 0 1.5.7 1.5 1.5 0 .7-.8 1.5-1.5 1.5zm17.9-21c5.5 0 10.2 4.5 10.2 10.3 0 5.5-4.5 10.2-10.2 10.2-5.8 0-10.3-4.7-10.3-10.2 0-5.8 4.5-10.3 10.3-10.3zm0 2.9C60.3 11.6 57 15 57 19s3.3 7.3 7.4 7.3c4.1 0 7.3-3.3 7.3-7.3s-3.2-7.4-7.3-7.4z"/></symbol><symbol id="s-world" viewBox="0 0 110.2 113.2"><path fill="currentColor" d="M8.5 0C13 0 17 3.6 17 8.5c0 4.5-3.8 8.3-8.5 8.3S0 13 0 8.5C0 3.6 4 0 8.5 0zm0 3.6c-2.7 0-4.9 2.2-4.9 4.9s2.3 4.7 4.9 4.7c2.5 0 4.9-2 4.9-4.7-.1-2.7-2.2-4.9-4.9-4.9zm50.2 7c28.4 0 51.5 23.2 51.5 51.3 0 28.1-23 51.3-51.5 51.3-28.1 0-51.3-23.2-51.3-51.3 0-28.1 23.2-51.3 51.3-51.3zM34 77.6l2.3-9.5-3.6-4-20.5-1.8-1.2.7c.4 10.8 4.1 20.9 10.4 28.6l1.8-5.8c.2-.4.5-.7.7-.9L34 77.6zm72.6-15.7c0-2.7-.2-5.6-.7-8.1l-4.3-.2 1.6 4.7c.4.5 0 1.4-.4 1.8l-6.7 6.3-6.8 11.5 1.4 9.9c0 .2 0 .7-.2 1.1l-5.9 10.6c-.4.5-1.1.9-1.6.9l-4.7-.2c-.7 0-1.4-.5-1.6-1.3L66.4 71.6l-9.9-.9c-.7 0-1.3-.5-1.6-1.3l-3.2-9.9c0-.5 0-1.3.5-1.8L59 50l.5-5.4c0-.4.4-1.1.7-1.3l10.1-7.6-3.4-11c-.2-.7.2-1.6.7-2l7.6-5.8c-5-1.8-10.3-2.9-15.8-2.9 0 .7-.5 1.6-1.4 1.8l-8.6 2-9.2 8.8c-.9.9-2.2.7-2.9-.4L34 21.1c-4.5 2.9-8.6 6.5-12.1 10.6l3.1 1.6 4.9-4.7c1.1-.9 2.3-.7 2.9.5L35 34c.2.4.2 1.1 0 1.4l-3.6 8.3c-.2.5-.9.9-1.4 1.1l-3.1.4 1.3 3.4c.5.9-.2 2-1.3 2.3l-5 1.1c-.7.2-1.6-.4-2-1.1L18 46.6l-5.2 2.2c-.9 3.2-1.4 6.5-1.6 10.1l.7-.2 21.8 1.8c.4 0 .9.4 1.1.5l4.9 5.2c.4.4.5 1.1.5 1.6L37.4 79c-.2.4-.4.9-.7 1.1l-10.1 7.4-2.1 7.5c8.6 9 20.9 14.6 34.2 14.6 26.4 0 47.9-21.4 47.9-47.7zM22.5 48.1l1.6-.4-1.3-3.4c-.5-1.1.2-2.2 1.4-2.3l4.1-.5 2.9-6.7-.7-1.8-4.1 3.8c-.5.5-1.4.7-2.2.4l-4.7-2.3c-2.2 2.9-3.8 6.1-5.2 9.5l3.8-1.6c.9-.4 2 0 2.3.9l2.1 4.4zm24.1-32.3c-3.2.7-6.3 2-9.4 3.4l2 3.4 7.4-6.8zm32.8 80.9l2.5.2 5.2-9.2-1.4-10.1c0-.4 0-.7.2-1.1l6.7-11.2L87.9 55l-26.3-2.5-5.9 6.8 2.5 7.9 9.7.9c.5 0 1.3.5 1.4 1.3l10.1 27.3zm11.5-43.4l4.1 9.2 4.5-4.1-2.2-5.9c-.5-1.4.4-2.5 1.7-2.5l6.1.2c-3.2-12.4-11.3-23-22.1-29.3l-5.6-.9-6.5 4.9L74.3 36c.2.7-.2 1.6-.7 2l-10.4 7.7-.2 1.6 10.3-6.7c.7-.5 1.8-.4 2.3.4l2.9 4.3 1.4-.4-3.1-6.3c-.7-1.4.4-2.7 2-2.5l7.6 1.4c.7.2 1.4.9 1.4 1.6l.5 6.3 3.1.2c1.3.2 2 1.3 1.4 2.5l-1.9 5.2zm-17.3-8.8l-7.6 5 21.8 1.8.9-2.2-2.1-.1c-.7 0-1.6-.7-1.6-1.6l-.6-6.4-2.9-.5 2.5 5c.5 1.1 0 2.2-1.1 2.5l-4.7 1.3c-.7.2-1.6-.2-2-.7l-2.6-4.1z"/></symbol><symbol id="misc-1" viewBox="0 0 451.9 231.3"><path fill="#E04863" d="M347.4 44.9c0 16.2-13.3 29.5-29.5 29.5-.4 0-.8-.4-.8-.8s.4-.8.8-.8c15.4 0 27.9-12.6 27.9-28 0-.4.4-.8.8-.8.4.1.8.5.8.9z"/><path fill="#494E68" d="M212.7 29.5c0-16.2 13.2-29.5 29.5-29.5 16.2 0 29.5 13.3 29.5 29.5 0 .3-.4.7-.8.7s-.7-.4-.7-.7c0-15.4-12.7-27.9-28-27.9s-27.9 12.5-27.9 27.9c0 .3-.4.7-.8.7s-.8-.4-.8-.7zM451.9 44.9c0 16.2-13.2 29.5-29.5 29.5-16.2 0-29.5-13.3-29.5-29.5 0-.3.4-.7.8-.7s.7.4.7.7c0 15.4 12.7 27.9 28 27.9s27.9-12.5 27.9-27.9c0-.3.4-.7.8-.7.4.1.8.4.8.7z"/><path fill="#EBC28B" d="M87.2 190.9c-.1-2.2 1.8-4.1 4.1-4.1h.1c2.2.1 3.9 1.8 4 4.1 0 2.2-1.8 4.1-4 4.1h-.1c-2.3-.1-4.2-2-4.1-4.1z"/><path fill="#E04863" d="M340.9 155c-.1-2.2 1.8-4.1 4.1-4.1h.1c2.2.1 3.9 1.8 4 4.1 0 2.2-1.8 4.1-4 4.1h-.1c-2.2 0-4.1-1.9-4.1-4.1z"/><path fill="none" stroke="#E04863" stroke-width="1.301" stroke-miterlimit="10" d="M372.2 150.9l-79.9 79.9"/><path fill="#3C4057" d="M25 196.1c2.8 0 4.1-1.5 4.7-2.7.6-1.3.7-2.5.7-2.6V182s0-.9.5-1.7c.5-1 1.5-1.5 2.8-1.5 1.4 0 2.3.5 2.8 1.6.4.8.4 1.7.4 1.7v8.7c0 .1 0 1.4.7 2.6.6 1.3 2 2.7 4.7 2.7 2.8 0 4.1-1.5 4.7-2.7.6-1.3.7-2.5.7-2.6v-8.7s0-.9.5-1.7c.5-1 1.5-1.5 2.8-1.5 1.4 0 2.3.5 2.8 1.6.4.8.4 1.7.4 1.7v8.7c0 .1 0 1.4.7 2.6.6 1.3 2 2.7 4.7 2.7 2.8 0 4.1-1.5 4.7-2.7.6-1.3.7-2.5.7-2.6v-8.7s0-.9.5-1.7c.5-1 1.5-1.5 2.8-1.5 1.4 0 2.3.5 2.8 1.5.4.8.5 1.7.5 1.8v8.7c0 .1 0 1.4.7 2.6.6 1.3 2 2.7 4.7 2.7 2.8 0 4.1-1.5 4.7-2.7.6-1.3.7-2.5.7-2.6v-4.4c0-.6-.5-1.1-1.1-1.1-.6 0-1.1.5-1.1 1.1v4.4s0 .9-.5 1.7c-.5 1-1.5 1.5-2.8 1.5-1.4 0-2.3-.5-2.8-1.6-.4-.8-.4-1.7-.4-1.7v-8.7c0-.1 0-1.4-.7-2.6-.6-1.3-2-2.7-4.7-2.7-2.8 0-4.1 1.5-4.7 2.7-.6 1.3-.7 2.5-.7 2.6v8.7s0 .9-.5 1.7c-.5 1-1.5 1.5-2.8 1.5-1.4 0-2.3-.5-2.8-1.5-.4-.8-.5-1.7-.5-1.8v-8.7c0-.1 0-1.4-.7-2.6-.6-1.3-2-2.7-4.7-2.7-2.8 0-4.1 1.5-4.7 2.7-.6 1.3-.7 2.5-.7 2.6v8.7s0 .9-.5 1.7c-.5 1-1.5 1.5-2.8 1.5-1.4 0-2.3-.5-2.8-1.6-.4-.8-.4-1.7-.4-1.7V182c0-.1 0-1.4-.7-2.6-.6-1.3-2-2.7-4.7-2.7-2.8 0-4.1 1.5-4.7 2.7-.6 1.3-.7 2.5-.7 2.6v8.7s0 .9-.5 1.7c-.5 1-1.5 1.5-2.8 1.5-1.4 0-2.3-.5-2.8-1.5-.4-.8-.5-1.7-.5-1.8v-8.7c0-.1 0-1.4-.7-2.6-.6-1.3-2-2.7-4.7-2.7-2.8 0-4.1 1.5-4.7 2.7-.6 1.3-.7 2.5-.7 2.6v4.4c0 .6.5 1.1 1.1 1.1.6 0 1.1-.5 1.1-1.1V182s0-.9.5-1.7c.5-1 1.5-1.5 2.8-1.5 1.4 0 2.3.5 2.8 1.6.4.8.4 1.7.4 1.7v8.7c0 .1 0 1.4.7 2.6.7 1.2 2.1 2.7 4.8 2.7z"/><path fill="#494E68" d="M1 14.2h14.1c.8 0 1.2.7.9 1.3L8.8 29.6c-.3.8-1.2.8-1.6 0 0 0-7.1-14-7.1-14.1-.3-.7.1-1.3.9-1.3zm1.4 1.9c1.3 2.6 4.2 8.3 5.6 11.2l5.6-11.2H2.4zM40.9 50.4c11.6 0 21 9.4 21 20.9 0 11.5-9.5 21-21 21s-21-9.5-21-21c.1-11.5 9.5-20.9 21-20.9zm0 1.1C30 51.5 21 60.4 21 71.4s9 19.8 19.9 19.8c11 0 19.9-9 19.9-19.9s-9-19.8-19.9-19.8z"/></symbol><symbol id="misc-2" viewBox="0 0 955.1 1344.6"><path fill="#4F5470" d="M258 316.5h33.7c1.8 0 2.9 1.6 2 3.2l-17 33.7c-.7 1.8-2.9 1.8-3.8 0 0 0-17-33.5-17-33.7-.8-1.7.3-3.2 2.1-3.2zm3.4 4.5c3.2 6.1 10 19.9 13.3 26.7L288 321h-26.6zM282.1 1089.6h21.7c1.2 0 1.9 1 1.3 2l-10.9 21.7c-.4 1.2-1.9 1.2-2.5 0 0 0-10.9-21.5-10.9-21.7-.6-1 .1-2 1.3-2zm2.1 2.9c2 3.9 6.4 12.8 8.6 17.2l8.6-17.2h-17.2z"/><path fill="#E04863" d="M241 1238.3c-.3-1 .4-1.9 1.5-1.9H295c1 0 1.6.9 1.5 1.7l-25 105.2c-.3 1.6-2.3 1.6-2.8.1L241 1238.3zm3.2 1c3.2 12.1 20.8 78.3 25.9 97.8l23.1-97.8h-49z"/><path fill="#4F5470" d="M291.5 1209.7c17.8 0 32.2 14.5 32.2 32.2 0 17.7-14.6 32.3-32.2 32.3-17.7 0-32.2-14.6-32.2-32.3-.1-17.7 14.4-32.2 32.2-32.2zm0 1.7c-16.8 0-30.5 13.7-30.5 30.5s13.7 30.6 30.5 30.6 30.6-13.8 30.6-30.6-13.9-30.5-30.6-30.5z"/><path fill="#E04863" d="M332.3 717.3c0 24.8-20.4 45.4-45.3 45.4-.6 0-1.2-.6-1.2-1.2s.6-1.2 1.2-1.2c23.6 0 42.9-19.4 42.9-43 0-.6.6-1.2 1.2-1.2s1.2.6 1.2 1.2z"/><path fill="#4F5470" d="M101 319.2c0-2 1.4-3.4 3.4-3.4s3.4 1.4 3.4 3.4-1.4 3.4-3.4 3.4-3.4-1.4-3.4-3.4zM950.6 37.1c-2.6 0-4.4-1.8-4.4-4.4 0-2.6 1.8-4.4 4.4-4.4 2.6 0 4.4 1.8 4.4 4.4.1 2.6-1.8 4.4-4.4 4.4zM407.8 1255.1c0 3.2-2.3 5.5-5.5 5.5s-5.5-2.3-5.5-5.5 2.3-5.5 5.5-5.5 5.5 2.3 5.5 5.5z"/><path fill="#EBC28B" d="M245.3 565c0 2.5-1.7 4.2-4.2 4.2s-4.2-1.7-4.2-4.2 1.7-4.2 4.2-4.2 4.2 1.7 4.2 4.2z"/><path fill="#4F5470" d="M278.1 5.5c0 3.2-2.3 5.5-5.5 5.5s-5.5-2.3-5.5-5.5 2.3-5.5 5.5-5.5 5.5 2.3 5.5 5.5zM916.8 32.7c0 3.2-2.3 5.5-5.5 5.5s-5.5-2.3-5.5-5.5 2.3-5.5 5.5-5.5c3.2.1 5.5 2.3 5.5 5.5zM341.8 930.9c0 24.8-20.3 45.3-45.3 45.3-25 0-45.3-20.4-45.3-45.3 0-.5.6-1.1 1.2-1.1s1.1.6 1.1 1.1c0 23.6 19.5 42.9 43 42.9s42.9-19.3 42.9-42.9c0-.5.6-1.1 1.2-1.1s1.2.6 1.2 1.1zM19.6 986.8c2 0 3.4 1.4 3.4 3.4s-1.4 3.4-3.4 3.4-3.4-1.4-3.4-3.4 1.4-3.4 3.4-3.4zM3.4 986.8c2 0 3.4 1.4 3.4 3.4s-1.4 3.4-3.4 3.4-3.4-1.5-3.4-3.4c0-2 1.4-3.4 3.4-3.4zM172.5 1190.6c0 2-1.4 3.4-3.4 3.4s-3.4-1.4-3.4-3.4 1.4-3.4 3.4-3.4 3.4 1.4 3.4 3.4zM48.5 1190.6c0-2.2 1.6-3.8 3.8-3.8 2.2 0 3.8 1.6 3.8 3.8 0 2.2-1.6 3.8-3.8 3.8-2.2 0-3.8-1.5-3.8-3.8zM148.2 459.8c-25 0-45.3-20.4-45.3-45.3 0-.5.6-1.1 1.2-1.1s1.2.6 1.2 1.1c0 23.6 19.4 42.9 42.9 42.9.6 0 1.2.6 1.2 1.2s-.6 1.2-1.2 1.2z"/><path fill="#A5D8C4" d="M104.4 373c-2 0-3.4-1.4-3.4-3.4s1.4-3.4 3.4-3.4 3.4 1.4 3.4 3.4-1.4 3.4-3.4 3.4z"/><path fill="#EBC28B" d="M209.1 853.1c0 3.2-2.3 5.5-5.5 5.5s-5.5-2.3-5.5-5.5 2.3-5.5 5.5-5.5c3.3 0 5.5 2.2 5.5 5.5z"/><path fill="none" stroke="#EBC28B" stroke-width="2" stroke-miterlimit="10" d="M372.5 853.1l-199.8 199.8"/><path fill="none" stroke="#4F5470" stroke-width="2" stroke-miterlimit="10" d="M146.2 362.5"/><path fill="#A5D8C4" d="M304 266.1l26.3 52.5c.1.3.1.9 0 1.2l-26.5 52.6c-.6 1.3-2 1.2-2.6 0L275 319.7c-.1-.3-.1-.9 0-1.3l26.5-52.5c.5-1 2-1 2.5.2zm23.3 53l-24.6-49.3-24.9 49.4 24.7 49.3 24.8-49.4z"/><path fill="#4F5470" d="M112.9 1144.1c4.3 0 6.3-2.3 7.3-4.2 1-1.9 1-3.8 1-4v-13.4s0-1.4.7-2.7c.8-1.6 2.2-2.3 4.3-2.3 2.1 0 3.6.8 4.4 2.4.6 1.3.7 2.6.7 2.6v13.4c0 .2 0 2.1 1 4s3 4.2 7.3 4.2 6.3-2.3 7.3-4.2c1-1.9 1-3.8 1-4v-13.4s0-1.4.7-2.7c.8-1.6 2.2-2.3 4.3-2.3 2.1 0 3.6.8 4.4 2.4.6 1.3.7 2.6.7 2.6v13.4c0 .2 0 2.1 1 4s3 4.2 7.3 4.2 6.3-2.3 7.3-4.2c1-1.9 1-3.8 1-4v-13.4s0-1.4.7-2.7c.8-1.6 2.2-2.3 4.3-2.3 2.1 0 3.5.8 4.3 2.3.7 1.3.7 2.7.7 2.7v13.4c0 .2 0 2.1 1 4s3 4.2 7.3 4.2 6.3-2.3 7.3-4.2c1-1.9 1-3.8 1-4v-6.8c0-.9-.7-1.6-1.6-1.6-.9 0-1.6.7-1.6 1.6v6.8s0 1.4-.7 2.7c-.8 1.6-2.2 2.3-4.3 2.3-2.1 0-3.6-.8-4.4-2.4-.6-1.3-.7-2.6-.7-2.6v-13.4c0-.2 0-2.1-1-4s-3-4.2-7.3-4.2-6.3 2.3-7.3 4.2c-1 1.9-1 3.8-1 4v13.4s0 1.4-.7 2.7c-.8 1.6-2.2 2.3-4.3 2.3-2.1 0-3.5-.8-4.3-2.3-.7-1.3-.7-2.7-.7-2.7v-13.4c0-.2 0-2.1-1-4s-3-4.2-7.3-4.2-6.3 2.3-7.3 4.2c-1 1.9-1 3.8-1 4v13.4s0 1.4-.7 2.7c-.8 1.6-2.2 2.3-4.3 2.3-2.1 0-3.6-.8-4.4-2.4-.6-1.3-.7-2.6-.7-2.6v-13.4c0-.2 0-2.1-1-4s-3-4.2-7.3-4.2-6.3 2.3-7.3 4.2c-1 1.9-1 3.8-1 4v13.4s0 1.4-.7 2.7c-.8 1.6-2.2 2.3-4.3 2.3-2.1 0-3.5-.8-4.3-2.3-.7-1.3-.7-2.7-.7-2.7v-13.4c0-.2 0-2.1-1-4s-3-4.2-7.3-4.2-6.3 2.3-7.3 4.2c-1 1.9-1 3.8-1 4v6.8c0 .9.7 1.6 1.6 1.6.9 0 1.6-.7 1.6-1.6v-6.8s0-1.4.7-2.7c.8-1.6 2.2-2.3 4.3-2.3 2.1 0 3.6.8 4.4 2.4.6 1.3.7 2.6.7 2.6v13.4c0 .2 0 2.1 1 4 .9 1.9 3 4.2 7.2 4.2z"/><path fill="#EBC28B" d="M131.8 587.3c-.4 0-.9-.3-1.1-.8-4.4-8.8-15.8-31.3-16.9-33.5l-.1-.2c-.2-.4-.2-.8-.1-1.1.2-.4.7-.6 1.2-.6h33.7c.6 0 1 .2 1.2.6.2.3.2.7-.1 1.1l-17 33.8c-.1.4-.4.7-.8.7zm-14.4-32.2c2.2 4.2 6.1 12.1 9.5 19 1.5 2.9 2.8 5.6 3.8 7.7l.9 1.8 15-29.9h-30l.8 1.4z"/><path fill="#4F5470" d="M132.9 853.1c0 3.2-2.3 5.5-5.5 5.5s-5.5-2.3-5.5-5.5 2.3-5.5 5.5-5.5 5.5 2.2 5.5 5.5zM195.1 319.7c0 3.2-2.3 5.5-5.5 5.5s-5.5-2.3-5.5-5.5 2.3-5.5 5.5-5.5c3.3 0 5.5 2.2 5.5 5.5z"/></symbol><symbol id="misc-3" viewBox="0 0 672.1 1227.6"><path fill="none" stroke="#50536F" stroke-width="2" stroke-miterlimit="10" d="M429.6 549.4l53.5-53.6 56.1 56L668 423"/><path fill="#50536F" d="M86.8 80.2h21.7c1.2 0 1.9 1 1.3 2l-10.9 21.7c-.4 1.2-1.9 1.2-2.5 0 0 0-10.9-21.5-10.9-21.7-.6-1 .1-2 1.3-2zm2.2 2.9c2 3.9 6.4 12.8 8.6 17.2l8.6-17.2H89z"/><path fill="#E04863" d="M415.3 37.1c1-.3 1.9.4 1.9 1.5v52.6c0 1-.9 1.6-1.7 1.5l-105.2-25c-1.6-.3-1.6-2.3-.1-2.8l105.1-27.8zm-1 3.2c-12.1 3.2-78.3 20.8-97.8 25.9l97.8 23.1v-49z"/><path fill="#50536F" d="M140.3 1136.9c16.7 0 30.3 13.6 30.3 30.2s-13.7 30.4-30.3 30.4-30.3-13.8-30.3-30.4 13.6-30.2 30.3-30.2zm0 1.5c-15.8 0-28.7 12.9-28.7 28.7s12.9 28.8 28.7 28.8 28.8-13 28.8-28.8-13-28.7-28.8-28.7z"/><path fill="#EBC28B" d="M421.4 978.2c25 0 45.3 20.4 45.3 45.3 0 .5-.6 1.1-1.2 1.1s-1.2-.6-1.2-1.1c0-23.6-19.4-42.9-42.9-42.9-.6 0-1.2-.6-1.2-1.2s.6-1.2 1.2-1.2z"/><path fill="#50536F" d="M471.9 711.5c0-24.8 20.3-45.3 45.3-45.3 25 0 45.3 20.4 45.3 45.3 0 .5-.6 1.1-1.2 1.1s-1.1-.6-1.1-1.1c0-23.6-19.5-42.9-43-42.9s-42.9 19.3-42.9 42.9c0 .5-.6 1.1-1.2 1.1s-1.2-.6-1.2-1.1zM576.4 86.5c-2.6 0-4.4-1.8-4.4-4.4 0-2.6 1.8-4.4 4.4-4.4 2.6 0 4.4 1.8 4.4 4.4 0 2.6-1.8 4.4-4.4 4.4z"/><path fill="#A5D8C4" d="M663.2 246.9c-2 0-3.4-1.4-3.4-3.4s1.4-3.4 3.4-3.4 3.4 1.4 3.4 3.4c-.1 2-1.4 3.4-3.4 3.4z"/><path fill="#50536F" d="M663.2 211.7c-2 0-3.4-1.4-3.4-3.4s1.4-3.4 3.4-3.4 3.4 1.4 3.4 3.4c-.1 2-1.4 3.4-3.4 3.4zM346.7 706.9c0-2 1.4-3.4 3.4-3.4s3.4 1.4 3.4 3.4-1.4 3.4-3.4 3.4-3.4-1.4-3.4-3.4z"/><path fill="#EBC28B" d="M1.3 1166.9c0 2.5 1.7 4.2 4.2 4.2s4.2-1.7 4.2-4.2-1.7-4.2-4.2-4.2-4.2 1.7-4.2 4.2z"/><path fill="#50536F" d="M581.9 208.4c0 3.2-2.3 5.5-5.5 5.5s-5.5-2.3-5.5-5.5 2.3-5.5 5.5-5.5c3.3 0 5.5 2.2 5.5 5.5z"/><path fill="#A5D8C4" d="M543.1 208.4c0-1 .7-1.8 1.8-1.8 1 0 1.8.7 1.8 1.8 0 1-.7 1.8-1.8 1.8-1.1-.1-1.8-.8-1.8-1.8zM11 1222.1c0-3.2-2.3-5.5-5.5-5.5s-5.5 2.3-5.5 5.5 2.3 5.5 5.5 5.5 5.5-2.3 5.5-5.5zM242.5 1166.9c0-3.2 2.3-5.5 5.5-5.5s5.5 2.3 5.5 5.5-2.3 5.5-5.5 5.5c-3.3 0-5.5-2.3-5.5-5.5z"/><path fill="#50536F" d="M669.9 717.5c0 2-1.4 3.4-3.4 3.4s-3.4-1.4-3.4-3.4 1.4-3.4 3.4-3.4c2 .1 3.4 1.5 3.4 3.4zM666.5 844.3c2.1 0 3.5 1.4 3.5 3.5s-1.4 3.5-3.5 3.5-3.5-1.4-3.5-3.5 1.5-3.5 3.5-3.5z"/><path fill="#EBC28B" d="M464.3 64.8c0 3.2-2.3 5.5-5.5 5.5s-5.5-2.3-5.5-5.5 2.3-5.5 5.5-5.5 5.5 2.3 5.5 5.5z"/><path fill="#50536F" d="M242.5 1220.9c0-3.2 2.3-5.5 5.5-5.5s5.5 2.3 5.5 5.5-2.3 5.5-5.5 5.5c-3.3-.1-5.5-2.3-5.5-5.5zM571 1220.9c0-3.2 2.3-5.5 5.5-5.5s5.5 2.3 5.5 5.5-2.3 5.5-5.5 5.5c-3.3-.1-5.5-2.3-5.5-5.5z"/><path fill="none" stroke="#535876" stroke-miterlimit="10" d="M289.3 187.1L476.1.4"/><path fill="#50536F" d="M539.3 546.3c3.2 0 5.5 2.3 5.5 5.5s-2.3 5.5-5.5 5.5-5.5-2.3-5.5-5.5 2.3-5.5 5.5-5.5zM666.7 418.3c3.2 0 5.5 2.3 5.5 5.5s-2.3 5.5-5.5 5.5-5.5-2.3-5.5-5.5 2.2-5.5 5.5-5.5zM429.6 543.9c3.2 0 5.5 2.3 5.5 5.5s-2.3 5.5-5.5 5.5-5.5-2.3-5.5-5.5c0-3.3 2.2-5.5 5.5-5.5z"/><path fill="#EBC28B" d="M182.9 1156.4v21.7c0 1.2-1 1.9-2 1.3l-21.5-10.9c-1.3-.6-1.3-1.9 0-2.5 0 0 21.4-10.9 21.5-10.9 1-.6 2 .1 2 1.3zm-19.8 10.9l16.9 8.4v-17c-3.9 2-12.7 6.4-16.9 8.6z"/><path fill="#E04863" d="M421 916.8c-.3 0-.8-.5-.8-.8 0-.3.5-.8.8-.8 77.2 0 140.1-63 140.1-140.4 0-.3.5-.8.8-.8.3 0 .8.5.8.8 0 37.6-14.8 73.2-41.7 100.2-26.9 26.9-62.4 41.8-100 41.8z"/></symbol><symbol id="misc-4" viewBox="0 0 507.1 348.4"><path fill="#E04863" d="M507.1 65.2c0 19.6-16.1 35.8-35.8 35.8-.5 0-.9-.5-.9-.9 0-.5.5-.9.9-.9 18.7 0 33.9-15.3 33.9-34 0-.5.5-.9.9-.9.6 0 1 .5 1 .9z"/><path fill="#686969" d="M152.8 205.9c0-2 1.4-3.4 3.4-3.4s3.4 1.4 3.4 3.4-1.4 3.4-3.4 3.4c-2.1 0-3.4-1.4-3.4-3.4z"/><path fill="#A5D8C4" d="M246.9 153.8c0 3.2-2.3 5.5-5.5 5.5s-5.5-2.3-5.5-5.5 2.3-5.5 5.5-5.5c3.2.1 5.5 2.3 5.5 5.5z"/><path fill="#686969" d="M246.8 343c0 3.2-2.3 5.5-5.5 5.5s-5.5-2.3-5.5-5.5 2.3-5.5 5.5-5.5c3.3 0 5.5 2.2 5.5 5.5z"/><path fill="#35394F" d="M470.4 199.2c2 0 3.4 1.4 3.4 3.4s-1.4 3.4-3.4 3.4-3.4-1.4-3.4-3.4c.1-2 1.5-3.4 3.4-3.4zM454.2 199.2c2 0 3.4 1.4 3.4 3.4s-1.4 3.4-3.4 3.4-3.4-1.4-3.4-3.4 1.4-3.4 3.4-3.4z"/><path fill="#686969" d="M199.9 346.4c-25 0-45.3-20.4-45.3-45.3 0-.5.6-1.1 1.2-1.1s1.2.6 1.2 1.1c0 23.6 19.4 42.9 42.9 42.9.6 0 1.2.6 1.2 1.2s-.6 1.2-1.2 1.2z"/><path fill="#A5D8C4" d="M156.1 259.7c-2 0-3.4-1.4-3.4-3.4s1.4-3.4 3.4-3.4 3.4 1.4 3.4 3.4-1.4 3.4-3.4 3.4z"/><path fill="none" stroke="#EBC28B" stroke-width="2" stroke-miterlimit="10" d="M241.4.7L.7 241.4"/><path fill="#EBC28B" d="M354.5 101.1c-.4 0-.9-.3-1.1-.8-4.4-8.8-15.8-31.3-16.9-33.5v-.1l-.1-.2c-.2-.4-.2-.8-.1-1.1.2-.4.7-.6 1.2-.6h33.7c.6 0 1 .2 1.2.6.2.3.2.7-.1 1.1l-17 33.8c-.1.5-.4.8-.8.8zM340 68.8c2.2 4.2 6.1 12.1 9.5 19 1.5 2.9 2.8 5.6 3.8 7.7l.9 1.8 15-29.9h-30l.8 1.4z"/><path fill="#686969" d="M246.9 206.3c0 3.2-2.3 5.5-5.5 5.5s-5.5-2.3-5.5-5.5 2.3-5.5 5.5-5.5c3.2.1 5.5 2.3 5.5 5.5z"/></symbol><symbol id="misc-5" viewBox="0 0 1335.1 1313.1"><path fill="#494E68" d="M982.8 1018.3c-1.7-1-2.6-3.1-2.6-5.7 0-2.2 1.9-9.6 16.7-9.6 14.8 0 24 8.4 24 22.1 0 13.2-12.1 23-38.2 23-15.6 0-25.6-3.8-32.7-8.4-.6-.4-.7-1.3-.3-2 .4-.6 1.3-.7 2-.3 6.5 4.4 16.3 7.8 31 7.8 23 0 35.3-7.7 35.3-20.1 0-11.9-8.3-19.2-21.1-19.2-11.3 0-13.8 4.8-13.8 6.7 0 1.5-.1 2.2 1.5 3.3.6.4.7 1.3.3 2-.5.7-1.5.9-2.1.4zm-22.8 6.9c-3.5-3.3-5.8-9.7-5.8-16.3 0-15.6 12.5-24.7 27.9-24.7.7 0 1.5.7 1.5 1.5 0 .7-.7 1.5-1.5 1.5-13.7 0-25 8-25 21.8 0 5.7 1.7 11.2 4.9 14.2.6.6.6 1.5 0 2s-1.4.5-2 0zm46.8-6.1c2 .9 2.6 3.1 2.6 5.7 0 2.2-1.9 9.6-16.7 9.6-14.8 0-24-8.4-24-22.1 0-13.2 12.1-23 38.2-23 15.6 0 25.6 3.8 32.7 8.4.6.4.7 1.3.3 2-.4.6-1.3.7-2 .3-6.5-4.4-16.3-7.8-31-7.8-23 0-35.3 7.7-35.3 20.1 0 11.9 8.3 19.2 21.1 19.2 11.3 0 13.8-4.8 13.8-6.7 0-1.5.1-2.2-1.5-3.3-.6-.4-.7-1.3-.3-2 .5-.7 1.4-.7 2.1-.4zm22.7-6.9c3.5 3.3 5.8 9.7 5.8 16.3 0 15.6-12.5 24.7-27.8 24.7-.7 0-1.5-.7-1.5-1.5s.7-1.5 1.5-1.5c13.5 0 24.9-8 24.9-21.8 0-5.7-1.7-11.2-4.9-14.2-.6-.6-.6-1.5 0-2 .5-.6 1.4-.6 2 0zM566.5 114h21.7c1.2 0 1.9 1 1.3 2l-10.9 21.7c-.4 1.2-1.9 1.2-2.5 0 0 0-10.9-21.5-10.9-21.7-.6-.9.1-2 1.3-2zm2.2 2.9c2 3.9 6.4 12.8 8.6 17.2l8.6-17.2h-17.2zM788.4 923.8h21.7c1.2 0 1.9 1 1.3 2l-10.9 21.7c-.4 1.2-1.9 1.2-2.5 0 0 0-10.9-21.5-10.9-21.7-.6-.9.1-2 1.3-2zm2.2 3c2 3.9 6.4 12.8 8.6 17.2l8.6-17.2h-17.2z"/><path fill="#E04863" d="M241.9 238.6c-.3-1 .4-1.9 1.5-1.9H296c1 0 1.6.9 1.5 1.7l-25 105.2c-.3 1.6-2.3 1.6-2.8.1l-27.8-105.1zm3.2 1c3.2 12.1 20.8 78.3 25.9 97.8l23.1-97.8h-49z"/><path fill="#494E68" d="M292.4 210c17.8 0 32.2 14.5 32.2 32.2 0 17.7-14.6 32.3-32.2 32.3-17.7 0-32.2-14.6-32.2-32.3 0-17.7 14.4-32.2 32.2-32.2zm0 1.7c-16.8 0-30.5 13.7-30.5 30.5s13.7 30.6 30.5 30.6S323 259 323 242.2s-13.8-30.5-30.6-30.5z"/><path fill="#808080" d="M594.7 700.1c25 0 45.3 20.4 45.3 45.3 0 .5-.6 1.1-1.2 1.1s-1.2-.6-1.2-1.1c0-23.6-19.4-42.9-42.9-42.9-.6 0-1.2-.6-1.2-1.2s.6-1.2 1.2-1.2z"/><path fill="#E04863" d="M1135 450.9c0 24.8-20.4 45.4-45.3 45.4-.6 0-1.2-.6-1.2-1.2s.6-1.2 1.2-1.2c23.6 0 42.9-19.4 42.9-43 0-.6.6-1.2 1.2-1.2s1.2.6 1.2 1.2z"/><path fill="#494E68" d="M1138.6 745.4c0-24.8 20.3-45.3 45.3-45.3 25 0 45.3 20.4 45.3 45.3 0 .5-.6 1.1-1.2 1.1s-1.1-.6-1.1-1.1c0-23.6-19.5-42.9-43-42.9s-42.9 19.3-42.9 42.9c0 .5-.6 1.1-1.2 1.1-.6-.1-1.2-.7-1.2-1.1z"/><path fill="#808080" d="M272.1 154.1c0-2 1.4-3.4 3.4-3.4s3.4 1.4 3.4 3.4-1.4 3.4-3.4 3.4c-2.1 0-3.4-1.4-3.4-3.4z"/><path fill="#494E68" d="M288.3 399.5c-2 0-3.4-1.4-3.4-3.4s1.4-3.4 3.4-3.4 3.4 1.4 3.4 3.4c-.1 2-1.4 3.4-3.4 3.4zM516.7 576.5c-2 0-3.4-1.4-3.4-3.4s1.4-3.4 3.4-3.4 3.4 1.4 3.4 3.4-1.4 3.4-3.4 3.4z"/><path fill="#808080" d="M811.2 1033.8c0-2 1.4-3.4 3.4-3.4s3.4 1.4 3.4 3.4-1.4 3.4-3.4 3.4-3.4-1.4-3.4-3.4z"/><path fill="#494E68" d="M695.1 528.5c-.2-5 4-9 9.2-9.2h.2c4.8.2 8.7 4 8.8 9.2 0 4.8-4 9-8.8 9.2h-.2c-5.1-.2-9.3-4.4-9.2-9.2zM1141.9 247.7c-.2-5 4-9 9.2-9.2h.2c4.8.2 8.7 4 8.8 9.2 0 4.8-4 9-8.8 9.2h-.2c-5.2-.2-9.4-4.4-9.2-9.2zM1205.5 352.7c-1.8 1.8-4.4 1.8-6.2 0-1.8-1.8-1.8-4.4 0-6.2 1.8-1.8 4.4-1.8 6.2 0 1.8 1.8 1.8 4.4 0 6.2zM1040 120.4c-2.6 0-4.4-1.8-4.4-4.4 0-2.6 1.8-4.4 4.4-4.4 2.6 0 4.4 1.8 4.4 4.4 0 2.6-1.8 4.4-4.4 4.4zM1201.4 1052.3c-2.6 0-4.4-1.8-4.4-4.4 0-2.6 1.8-4.4 4.4-4.4 2.6 0 4.4 1.8 4.4 4.4.1 2.6-1.8 4.4-4.4 4.4z"/><path fill="#E04863" d="M241.7 375.4c-2 0-3.4-1.4-3.4-3.4s1.4-3.4 3.4-3.4 3.4 1.4 3.4 3.4c-.1 2-1.5 3.4-3.4 3.4z"/><path fill="#494E68" d="M439.2 531.9c-2 0-3.4-1.4-3.4-3.4s1.4-3.4 3.4-3.4 3.4 1.4 3.4 3.4-1.4 3.4-3.4 3.4zM865.1 740.8c0-2 1.4-3.4 3.4-3.4s3.4 1.4 3.4 3.4-1.4 3.4-3.4 3.4c-2-.1-3.4-1.4-3.4-3.4z"/><path fill="#E04863" d="M670.6 372.8c-2.4 0-4.1-1.7-4.1-4.1 0-2.4 1.7-4.1 4.1-4.1 2.4 0 4.1 1.7 4.1 4.1 0 2.4-1.7 4.1-4.1 4.1z"/><path fill="#808080" d="M357.7 6.7c0 3.9-2.8 6.7-6.7 6.7-3.9 0-6.7-2.8-6.7-6.7 0-3.9 2.8-6.7 6.7-6.7 4 0 6.7 2.8 6.7 6.7zM420.2 1070.4c0 2.1-1.5 3.6-3.6 3.6s-3.6-1.5-3.6-3.6 1.5-3.6 3.6-3.6c2.1.1 3.6 1.5 3.6 3.6z"/><path fill="#EBC28B" d="M334.7 661.6c0 2.5-1.7 4.2-4.2 4.2s-4.2-1.7-4.2-4.2 1.7-4.2 4.2-4.2c2.4 0 4.2 1.7 4.2 4.2z"/><path fill="#E04863" d="M182.2 74.6c0 3.2-2.3 5.5-5.5 5.5s-5.5-2.3-5.5-5.5 2.3-5.5 5.5-5.5c3.3 0 5.5 2.3 5.5 5.5z"/><path fill="#808080" d="M1000.3 210c0 3.2-2.3 5.5-5.5 5.5s-5.5-2.3-5.5-5.5 2.3-5.5 5.5-5.5c3.2.1 5.5 2.3 5.5 5.5z"/><path fill="#494E68" d="M816 746c0 24.8-20.3 45.3-45.3 45.3-25 0-45.3-20.4-45.3-45.3 0-.5.6-1.1 1.2-1.1s1.1.6 1.1 1.1c0 23.6 19.5 42.9 43 42.9s42.9-19.3 42.9-42.9c0-.5.6-1.1 1.2-1.1s1.2.6 1.2 1.1zM937.7 983.7c0 2-1.4 3.4-3.4 3.4s-3.4-1.4-3.4-3.4 1.4-3.4 3.4-3.4 3.4 1.4 3.4 3.4zM108.9 1083.4c2 0 3.4 1.4 3.4 3.4s-1.4 3.4-3.4 3.4-3.4-1.4-3.4-3.4c.1-2 1.4-3.4 3.4-3.4zM92.7 1083.4c2 0 3.4 1.4 3.4 3.4s-1.4 3.4-3.4 3.4-3.4-1.4-3.4-3.4 1.4-3.4 3.4-3.4zM878.9 894c2 0 3.4 1.4 3.4 3.4s-1.4 3.4-3.4 3.4-3.4-1.4-3.4-3.4 1.4-3.4 3.4-3.4z"/><path fill="#808080" d="M1006.4 582.9c2 0 3.4 1.4 3.4 3.4s-1.4 3.4-3.4 3.4-3.4-1.4-3.4-3.4 1.4-3.4 3.4-3.4z"/><path fill="#494E68" d="M301.8 1269.1c0 2-1.4 3.4-3.4 3.4s-3.4-1.4-3.4-3.4 1.4-3.4 3.4-3.4c2.1 0 3.4 1.4 3.4 3.4z"/><path fill="#E04863" d="M588 343.3c0-3.2 2.3-5.5 5.5-5.5s5.5 2.3 5.5 5.5-2.3 5.5-5.5 5.5-5.5-2.3-5.5-5.5z"/><path fill="#808080" d="M1111.8 980.1c2.4 0 4.1 1.7 4.1 4.1 0 2.4-1.7 4.1-4.1 4.1-2.4 0-4.1-1.7-4.1-4.1 0-2.4 1.7-4.1 4.1-4.1zM660.3 313.2c0-1.4 1-2.4 2.4-2.4s2.4 1 2.4 2.4-1 2.4-2.4 2.4c-1.5 0-2.4-1-2.4-2.4z"/><path fill="#E04863" d="M1269.2 339.3c-2.3-2.3-2.3-5.5 0-7.8s5.5-2.3 7.8 0 2.3 5.5 0 7.8-5.5 2.3-7.8 0zM0 888.4c0-3.2 2.3-5.5 5.5-5.5s5.5 2.3 5.5 5.5-2.3 5.5-5.5 5.5-5.5-2.3-5.5-5.5z"/><path fill="#808080" d="M177.9 1309.3c0-2.2 1.6-3.8 3.8-3.8 2.2 0 3.8 1.6 3.8 3.8s-1.6 3.8-3.8 3.8c-2.3 0-3.8-1.6-3.8-3.8z"/><path fill="#E04863" d="M94 646.7c-25 0-45.3-20.4-45.3-45.3 0-.5.6-1.1 1.2-1.1s1.2.6 1.2 1.1c0 23.6 19.4 42.9 42.9 42.9.6 0 1.2.6 1.2 1.2s-.6 1.2-1.2 1.2zM1232.2 939.3c2 0 3.4 1.4 3.4 3.4s-1.4 3.4-3.4 3.4-3.4-1.4-3.4-3.4c.1-2 1.5-3.4 3.4-3.4z"/><path fill="#494E68" d="M1262.1 751.4c0 2-1.4 3.4-3.4 3.4s-3.4-1.4-3.4-3.4 1.4-3.4 3.4-3.4c2.1 0 3.4 1.4 3.4 3.4z"/><path fill="#808080" d="M1263.5 878.1c2.1 0 3.5 1.4 3.5 3.5s-1.4 3.5-3.5 3.5-3.5-1.4-3.5-3.5c0-2 1.5-3.5 3.5-3.5z"/><path fill="#494E68" d="M1189.6 508.5c0-2 1.4-3.4 3.4-3.4s3.4 1.4 3.4 3.4-1.4 3.4-3.4 3.4c-2-.1-3.4-1.5-3.4-3.4z"/><path fill="#808080" d="M1193.9 458.4c0-2 1.4-3.4 3.4-3.4s3.4 1.4 3.4 3.4-1.4 3.4-3.4 3.4c-2-.1-3.4-1.5-3.4-3.4zM1128.4 857.4c-2 0-3.4-1.4-3.4-3.4s1.4-3.4 3.4-3.4 3.4 1.4 3.4 3.4-1.4 3.4-3.4 3.4z"/><path fill="#494E68" d="M1102.7 587.1c-.2-5 4-9 9.2-9.2h.2c4.8.2 8.7 4 8.8 9.2 0 4.8-4 9-8.8 9.2h-.2c-5.1-.2-9.3-4.4-9.2-9.2z"/><path fill="#E04863" d="M163.9 459.9c-2 0-3.4-1.4-3.4-3.4s1.4-3.4 3.4-3.4 3.4 1.4 3.4 3.4c0 2.1-1.4 3.4-3.4 3.4z"/><path fill="#494E68" d="M1328.4 581.5c0-2 1.4-3.4 3.4-3.4s3.4 1.4 3.4 3.4-1.4 3.4-3.4 3.4-3.4-1.4-3.4-3.4zM283.2 949.5c0-2 1.4-3.4 3.4-3.4s3.4 1.4 3.4 3.4-1.4 3.4-3.4 3.4-3.4-1.4-3.4-3.4z"/><path fill="#808080" d="M1281.5 1065c0 1.4-1 2.4-2.4 2.4s-2.4-1-2.4-2.4 1-2.4 2.4-2.4 2.4 1 2.4 2.4zM1220.1 391.5c0 1.4-1 2.4-2.4 2.4s-2.4-1-2.4-2.4 1-2.4 2.4-2.4 2.4 1 2.4 2.4z"/><path fill="#E04863" d="M252.6 647.3c0 3.2-2.3 5.5-5.5 5.5s-5.5-2.3-5.5-5.5 2.3-5.5 5.5-5.5c3.3 0 5.5 2.2 5.5 5.5z"/><path fill="#EBC28B" d="M368.1 1035.3c0 3.2-2.3 5.5-5.5 5.5s-5.5-2.3-5.5-5.5 2.3-5.5 5.5-5.5c3.3 0 5.5 2.3 5.5 5.5z"/><path fill="#808080" d="M1239.1 625.3c0 2.2-1.6 3.8-3.8 3.8-2.2 0-3.8-1.6-3.8-3.8 0-2.2 1.6-3.8 3.8-3.8 2.3 0 3.8 1.5 3.8 3.8zM345.3 346.7l1.2-6.2-4.6-4.6c-.2-.2-.1-.5.2-.6l6.4-.8 2.9-5.8c.1-.3.5-.3.6 0l2.9 5.8 6.2.8c.3 0 .4.3.2.6l-4.4 4.6 1 6.2c0 .3-.2.5-.5.4l-5.6-2.9-5.8 2.9c-.5.1-.8-.1-.7-.4zm6.4-3.2l5.2 2.7-.9-5.7c0-.1 0-.2.1-.3l4.1-4.3-5.7-.7c-.1 0-.2-.1-.3-.2l-2.7-5.4-2.7 5.4c0 .1-.2.2-.3.2l-5.9.7 4.3 4.3c.1.1.1.2.1.3l-1.1 5.7 5.4-2.7c.2-.1.3-.1.4 0z"/><path fill="#E04863" d="M245.464 647.04l1.414 1.415L6.252 889.08l-1.414-1.414zM224.5 949.4c-.2-4-3.6-7.3-7.7-7.3-4.2.2-7.5 3.4-7.7 7.3.2 4.4 3.4 8.1 7.7 7.9 4.1.2 7.5-3.6 7.7-7.9zM356.7 903.3c3.2 0 5.5 2.3 5.5 5.5s-2.3 5.5-5.5 5.5-5.5-2.3-5.5-5.5 2.2-5.5 5.5-5.5zM216.4 951.4L215 950l92.8-92.8 53.4 53.4-1.4 1.4-52-51.9z"/></symbol><symbol id="s-arrow" viewBox="0 0 84.2 43.6"><path fill="none" stroke-width="3" stroke-miterlimit="10" d="M0 21.8h63"/><path fill="none" stroke-width="3" stroke-miterlimit="10" d="M52.5 2.8v38l29-19z"/></symbol></svg>